<svg width="112" height="57" viewBox="0 0 112 57" fill="none" xmlns="http://www.w3.org/2000/svg">
<g id="Group" filter="url(#filter0_f_14_692)">
<path id="Vector" d="M61.6288 16.9897C58.6901 15.0183 54.3816 17.2814 49.6781 23.2106C49.8184 21.4422 49.3901 20.1094 47.8174 19.1495C45.6539 17.8315 42.7853 19.4855 40.8138 20.8441C40.3228 21.1838 39.8502 21.5345 39.422 21.8668C38.7095 20.1537 37.5502 18.8431 36.018 18.0567C33.6442 16.8384 30.8199 17.082 28.0657 18.7471C25.6143 20.2275 23.3843 22.7565 21.7858 25.8688C19.1313 31.0375 19.0464 36.4461 21.2246 39.7947C19.7035 41.6221 18.1012 43.0509 16.4472 44.0367C15.1329 44.8194 12.5375 46.0303 9.8978 45.351C7.13626 44.6385 5.61519 41.995 5.11679 39.7614C4.44117 36.7304 4.65899 32.8686 5.78502 27.9473C6.67108 24.0782 8.11461 20.5007 10.0787 17.3146C10.6177 16.4433 11.201 15.5905 11.8139 14.7894C14.4167 11.3891 17.0121 9.11122 19.5263 8.01472C21.7341 7.05483 24.791 6.78162 26.7551 8.89708C27.4565 9.65023 28.6342 9.69454 29.3874 8.99308C30.1405 8.29161 30.1848 7.11389 29.4834 6.36074C26.7735 3.44045 22.2805 2.75006 18.0385 4.59601C14.9373 5.94725 11.8471 8.61281 8.85669 12.5188C8.1663 13.4197 7.50914 14.3722 6.90736 15.3542C4.72914 18.8911 3.12685 22.8451 2.15218 27.113C0.882168 32.6619 0.66804 36.9371 1.48026 40.57C2.42539 44.7972 5.294 48.0091 8.96745 48.958C9.78336 49.1684 10.6325 49.2718 11.5001 49.2718C13.7374 49.2718 16.1002 48.5777 18.3523 47.2375C20.3348 46.0561 22.2251 44.3948 23.9898 42.2941C24.9645 42.7814 26.0056 43.0177 27.0762 43.0177C31.0487 43.0177 35.4052 39.7983 38.152 34.4488C39.5734 31.6835 40.297 28.7263 40.2379 26.0128C42.4604 24.045 45.0485 22.3984 45.9604 22.3947C46.156 22.9042 45.5653 25.0861 45.0448 27.0133C44.2695 29.8856 43.2025 33.8175 42.2906 39.4402C42.1245 40.4555 42.8149 41.4117 43.8301 41.5778C44.8454 41.744 45.8016 41.0536 45.9677 40.0383C46.4329 37.1808 48.5299 31.0264 51.561 26.8878C56.0614 20.7444 59.0297 19.7439 59.5503 20.091C60.1964 20.5229 58.919 24.3736 57.7929 27.7664L57.5973 28.3571C55.6664 34.183 54.4813 39.9534 54.4259 43.793C54.4111 44.823 55.2307 45.6685 56.2608 45.6832C56.2719 45.6832 56.2792 45.6832 56.2903 45.6832C57.3056 45.6832 58.1363 44.8673 58.151 43.8484C58.2027 40.4223 59.3435 34.9361 61.1341 29.5312L61.3298 28.9405C63.4526 22.535 64.6229 19.0092 61.6288 16.9971V16.9897ZM34.844 32.7468C32.3926 37.5168 28.2614 40.3005 25.629 38.9492C22.897 37.5463 22.657 32.337 25.1048 27.5707C26.3932 25.0639 28.1284 23.0629 29.9965 21.9332C30.6463 21.5419 31.717 21.0213 32.8467 21.0213C33.3377 21.0213 33.8361 21.1173 34.3198 21.3683C35.9442 22.2027 36.3688 24.2406 36.4795 25.3814C36.6974 27.652 36.1177 30.2695 34.844 32.7468Z" fill="#F29E58"/>
<path id="Vector_2" d="M82.621 16.927C79.3943 17.0562 75.8685 18.2635 73.3617 19.3193C73.9303 17.6506 74.5247 16.0852 75.156 14.5974C76.4593 11.5294 77.9803 8.38391 80.2767 6.154C81.0815 5.37132 81.8421 4.89506 82.5435 4.74369C82.9496 4.65508 83.6695 4.85076 84.1753 5.33809C84.9174 6.05063 86.0988 6.02478 86.8077 5.2827C87.5165 4.54063 87.4944 3.36291 86.7523 2.65037C85.3863 1.33974 83.4185 0.737966 81.735 1.10716C80.3321 1.41728 79.0067 2.19627 77.6813 3.48475C74.9123 6.17615 73.1845 9.71669 71.7299 13.1428C69.7584 17.7798 68.1377 23.0703 66.6277 29.7933C65.0254 36.9224 63.7886 44.727 62.8472 53.6504C62.7401 54.673 63.4822 55.5886 64.5048 55.6994C64.5713 55.7068 64.6378 55.7105 64.7042 55.7105C65.6457 55.7105 66.4542 55.0016 66.5539 54.0417C67.4805 45.2624 68.6915 37.598 70.2642 30.6092C70.7885 28.2796 71.3238 26.1309 71.885 24.1299C72.5975 23.7533 76.9318 21.5234 81.0077 20.8404C80.8895 21.121 80.764 21.409 80.6496 21.6748C79.099 25.2522 76.5073 31.2368 77.744 38.2773C77.9028 39.1818 78.6892 39.8168 79.5752 39.8168C79.6823 39.8168 79.7894 39.8057 79.9001 39.7873C80.9117 39.6101 81.591 38.6428 81.4138 37.6312C80.3727 31.6909 82.5989 26.5518 84.0683 23.1515C85.1205 20.726 85.7518 19.2603 84.851 17.9496C84.5741 17.5435 83.9169 16.879 82.6247 16.927H82.621Z" fill="#F29E58"/>
<path id="Vector_3" d="M89.9678 11.2195C89.9678 12.4563 88.9636 13.4605 87.7268 13.4605C86.49 13.4605 85.4858 12.4563 85.4858 11.2195C85.4858 9.98268 86.49 8.98218 87.7268 8.98218C88.9636 8.98218 89.9678 9.98638 89.9678 11.2195Z" fill="#F29E58"/>
<path id="Vector_4" d="M109.074 34.7626C107.198 34.5116 106.083 30.7975 105.839 29.0438C105.736 28.2759 105.168 27.6557 104.411 27.4822C103.658 27.3086 102.871 27.6225 102.443 28.2648C98.2341 34.5891 94.808 36.0068 93.1504 35.2979C91.5296 34.6038 90.3851 31.5137 91.2786 27.5412C92.7073 21.1801 96.4177 18.784 99.1571 18.6659C100.054 18.629 100.7 18.8136 101.132 19.2418C101.83 19.9285 101.952 21.1911 101.941 21.6194C101.904 22.6421 102.698 23.5023 103.72 23.5503C104.75 23.5909 105.618 22.7971 105.662 21.7708C105.677 21.4496 105.74 18.5847 103.776 16.6206C102.956 15.801 101.457 14.8448 98.9947 14.9481C93.6562 15.177 89.2 19.803 87.642 26.7253C86.4016 32.241 88.0629 37.1771 91.6847 38.724C92.316 38.9935 93.1245 39.2114 94.0918 39.2114C96.3549 39.2114 99.4857 38.0152 103.218 33.4852C104.13 35.7004 105.755 38.0779 108.579 38.4545C109.598 38.5911 110.536 37.8749 110.672 36.8559C110.809 35.837 110.093 34.8992 109.074 34.7626Z" fill="#F29E58"/>
</g>
<defs>
<filter id="filter0_f_14_692" x="0" y="0" width="111.689" height="56.7104" filterUnits="userSpaceOnUse" color-interpolation-filters="sRGB">
<feFlood flood-opacity="0" result="BackgroundImageFix"/>
<feBlend mode="normal" in="SourceGraphic" in2="BackgroundImageFix" result="shape"/>
<feGaussianBlur stdDeviation="0.5" result="effect1_foregroundBlur_14_692"/>
</filter>
</defs>
</svg>
